# Blender v2.93.1 OBJ File: 'MeteorImpact.blend'
# www.blender.org
mtllib MeteorImpact.mtl
o Cube.001
v 2.646907 0.963313 -0.885832
v 1.735231 0.636687 0.885832
v -2.089084 0.636687 -0.885832
v -2.089084 0.636687 0.885832
v 2.595065 0.963313 0.885832
v -2.725657 0.963313 -0.885832
v -2.787010 0.963313 0.885832
v 2.307719 0.963313 2.130133
v -2.089084 0.963313 2.476680
v -2.089084 0.963313 -2.206429
v 1.704330 0.963313 -1.877991
v -1.392723 0.636687 -0.885832
v -0.696361 0.952409 -0.885832
v -0.000000 0.818810 -0.885832
v 0.696361 0.983907 -0.885832
v 1.392723 0.636687 -0.885832
v 1.392723 0.636687 0.885832
v 0.696361 1.031760 0.885832
v 0.000000 0.985869 0.885832
v -0.696361 0.936759 0.885832
v -1.392723 0.636687 0.885832
v 1.392723 0.963313 -0.885832
v 0.696361 0.963313 -0.885832
v -0.000000 0.963313 -0.885832
v -0.696361 0.963313 -0.885832
v -1.392723 0.963313 -0.885832
v -1.392723 0.963313 0.885832
v -0.696361 0.963313 0.885832
v 0.000000 0.963313 0.885832
v 0.696361 0.963313 0.885832
v 1.392723 0.963313 0.885832
v 1.713076 0.963313 2.728743
v 0.696361 0.636687 2.476680
v 0.000000 0.963313 2.829140
v -0.696361 0.636687 2.476680
v -1.238256 0.636687 2.225202
v -1.392723 0.963313 3.176697
v -0.696361 0.963313 2.883698
v 0.696362 0.963313 3.048246
v -1.392723 0.636687 -2.206429
v -0.696362 0.963313 -2.206429
v -0.000000 0.636687 -2.206429
v -0.000000 0.963313 -2.628418
v 1.154157 0.636687 -1.786114
v 1.392723 0.963313 -2.206429
v 0.696361 0.963313 -2.206429
v -1.392723 0.963313 -2.477861
v -2.205972 0.963313 1.696031
v 2.296862 0.963313 1.696031
v -1.854649 0.636687 1.696031
v -1.392723 0.636687 1.696031
v -0.696361 0.636687 1.425775
v 0.000000 0.636687 1.696031
v 0.696361 0.636687 1.696031
v 1.392723 0.636687 1.696031
v 1.392723 0.963313 1.696031
v 0.696361 0.963313 1.696031
v 0.000000 0.963313 1.696031
v -0.696361 0.963313 1.696031
v -1.392723 0.963313 1.696031
v 2.494786 0.963313 -0.000000
v -2.307517 0.963313 0.000000
v -1.392723 0.963313 0.000000
v -0.696361 0.963313 0.000000
v -0.000000 0.963313 0.000000
v 0.696361 0.963313 -0.000000
v 1.392723 0.963313 -0.000000
v 1.392723 0.636687 -0.000000
v 0.696361 0.969154 -0.000000
v 0.000000 0.636687 0.000000
v -0.696361 1.153834 0.000000
v -1.392723 0.636687 0.000000
v -2.492467 0.963313 -1.737020
v -2.089084 0.636687 -1.546130
v 1.567713 0.636687 -1.267450
v 2.115131 0.963313 -1.543786
v -1.392723 0.963313 -1.546130
v -0.696361 0.963313 -1.546130
v -0.000000 0.963313 -1.546130
v 0.696361 0.963313 -1.546130
v 1.392723 0.963313 -1.546131
v 1.392723 0.636687 -1.546131
v 0.696361 0.636687 -1.546130
v -0.000000 0.636687 -1.546130
v -0.696361 0.636687 -1.546130
v -1.392723 0.636687 -1.546130
vt 0.500000 0.208333
vt 0.625000 0.208333
vt 0.625000 0.250000
vt 0.500000 0.250000
vt 0.625000 0.500000
vt 0.500000 0.708333
vt 0.625000 0.708333
vt 0.625000 0.750000
vt 0.500000 0.750000
vt 0.625000 1.000000
vt 0.375000 0.250000
vt 0.375000 0.500000
vt 0.375000 0.250000
vt 0.625000 0.541667
vt 0.625000 0.500000
vt 0.625000 0.500000
vt 0.625000 0.541667
vt 0.625000 0.041667
vt 0.625000 0.000000
vt 0.625000 0.000000
vt 0.625000 0.041667
vt 0.625000 0.250000
vt 0.125000 0.708333
vt 0.375000 0.708333
vt 0.125000 0.750000
vt 0.375000 0.208333
vt 0.375000 0.208333
vt 0.375000 0.708333
vt 0.375000 0.750000
vt 0.375000 0.750000
vt 0.375000 1.000000
vt 0.375000 0.541667
vt 0.375000 0.541667
vt 0.375000 0.500000
vt 0.375000 0.583333
vt 0.375000 0.583333
vt 0.375000 0.625000
vt 0.375000 0.625000
vt 0.375000 0.666667
vt 0.375000 0.666667
vt 0.375000 0.000000
vt 0.375000 0.041667
vt 0.375000 0.041667
vt 0.375000 0.000000
vt 0.375000 0.083333
vt 0.375000 0.083333
vt 0.375000 0.125000
vt 0.375000 0.125000
vt 0.375000 0.166667
vt 0.375000 0.166667
vt 0.125000 0.541667
vt 0.125000 0.583333
vt 0.125000 0.625000
vt 0.125000 0.666667
vt 0.625000 0.208333
vt 0.625000 0.208333
vt 0.625000 0.250000
vt 0.625000 0.166667
vt 0.625000 0.166667
vt 0.625000 0.125000
vt 0.625000 0.125000
vt 0.625000 0.083333
vt 0.625000 0.083333
vt 0.875000 0.500000
vt 0.875000 0.541667
vt 0.875000 0.583333
vt 0.625000 0.583333
vt 0.625000 0.625000
vt 0.875000 0.625000
vt 0.875000 0.666667
vt 0.625000 0.666667
vt 0.625000 0.708333
vt 0.625000 0.750000
vt 0.625000 0.708333
vt 0.625000 0.750000
vt 0.625000 0.666667
vt 0.625000 0.625000
vt 0.625000 0.583333
vt 0.500000 0.500000
vt 0.625000 0.541667
vt 0.500000 0.541667
vt 0.625000 0.583333
vt 0.500000 0.583333
vt 0.625000 0.625000
vt 0.500000 0.625000
vt 0.625000 0.666667
vt 0.500000 0.666667
vt 0.500000 0.000000
vt 0.625000 0.000000
vt 0.625000 0.041667
vt 0.500000 0.041667
vt 0.625000 0.083333
vt 0.500000 0.083333
vt 0.625000 0.125000
vt 0.500000 0.125000
vt 0.625000 0.166667
vt 0.500000 0.166667
vt 0.625000 1.000000
vt 0.375000 0.166667
vt 0.375000 0.208333
vt 0.375000 0.125000
vt 0.375000 0.083333
vt 0.375000 0.041667
vt 0.375000 0.000000
vt 0.375000 0.666667
vt 0.375000 0.708333
vt 0.375000 0.625000
vt 0.375000 0.583333
vt 0.375000 0.541667
vt 0.375000 0.500000
vt 0.375000 0.750000
vt 0.375000 0.250000
vt 0.375000 1.000000
vn -0.1963 -0.9683 -0.1543
vn -0.4131 -0.8828 -0.2236
vn 0.0000 1.0000 -0.0000
vn 0.3548 -0.9341 -0.0402
vn -0.4585 -0.7966 -0.3940
vn 0.2678 -0.9515 0.1514
vn -0.6774 -0.7286 0.1014
vn 0.4186 -0.8168 -0.3971
vn -0.2220 -0.9465 -0.2341
vn 0.3180 -0.8637 -0.3909
vn 0.4589 -0.8096 -0.3659
vn -0.0926 -0.9799 -0.1766
vn 0.2642 -0.9233 -0.2787
vn 0.2220 -0.9465 -0.2341
vn -0.2872 -0.6122 -0.7367
vn 0.2872 -0.6122 -0.7367
vn -0.3478 -0.7414 -0.5739
vn 0.2237 -0.6364 -0.7382
vn -0.1942 -0.9545 0.2262
vn 0.0000 -1.0000 0.0000
vn 0.1636 -0.9757 0.1459
vn -0.1853 -0.9687 0.1653
vn 0.1644 -0.9754 0.1467
vn -0.2737 -0.9225 0.2722
vn 0.0146 -0.9005 0.4347
vn 0.0490 -0.7790 0.6251
vn -0.1542 -0.8578 0.4902
vn 0.1541 -0.8579 0.4902
vn 0.2197 -0.9719 -0.0850
vn -0.4628 -0.8859 0.0313
vn 0.2558 -0.9416 0.2189
vn -0.3178 -0.9455 0.0705
vn 0.5033 -0.8577 -0.1051
vn -0.2657 -0.9366 -0.2284
vn 0.0299 -0.9083 -0.4172
vn 0.1151 -0.8952 -0.4305
vn 0.1659 -0.9627 -0.2140
vn -0.5108 -0.8204 0.2570
vn 0.3521 -0.9269 0.1296
vn 0.2520 -0.9618 0.1065
vn 0.5108 -0.8542 0.0971
vn -0.4233 -0.9059 0.0099
vn 0.3346 -0.9366 -0.1041
vn -0.4386 -0.8987 -0.0075
vn 0.2671 -0.9634 0.0229
vn -0.4463 -0.8698 0.2107
vn -0.1963 -0.9683 0.1543
vn 0.2153 -0.9498 0.2271
vn -0.0894 -0.9320 0.3513
vn 0.1094 -0.9226 0.3698
vn -0.2344 -0.9402 0.2472
vn 0.2044 -0.9744 0.0937
vn 0.3721 -0.8781 -0.3008
vn -0.5196 -0.8506 -0.0802
usemtl None
s off
f 72/1/1 21/2/1 4/3/1 62/4/1
f 62/4/2 4/3/2 7/5/2
f 67/6/3 31/7/3 5/8/3 61/9/3
f 61/9/4 5/8/4 2/10/4
f 74/11/5 73/12/5 10/13/5
f 60/14/3 48/15/3 9/16/3 37/17/3
f 55/18/6 49/19/6 8/20/6 32/21/6
f 48/15/7 50/22/7 9/16/7
f 44/23/8 45/24/8 11/25/8
f 86/26/9 74/11/9 10/13/9 40/27/9
f 81/28/3 76/29/3 11/30/3 45/24/3
f 76/29/10 75/31/10 11/30/10
f 73/12/3 77/32/3 47/33/3 10/34/3
f 77/32/3 78/35/3 41/36/3 47/33/3
f 78/35/3 79/37/3 43/38/3 41/36/3
f 79/37/3 80/39/3 46/40/3 43/38/3
f 80/39/3 81/28/3 45/24/3 46/40/3
f 75/41/11 82/42/11 44/43/11 11/44/11
f 82/42/12 83/45/12 43/46/12 44/43/12
f 83/45/13 84/47/13 42/48/13 43/46/13
f 84/47/9 85/49/9 41/50/9 42/48/9
f 85/49/14 86/26/14 40/27/14 41/50/14
f 10/34/15 47/33/15 40/51/15
f 40/51/16 47/33/16 41/52/16
f 41/36/17 43/38/17 42/53/17
f 43/54/18 46/40/18 45/24/18 44/23/18
f 50/22/19 51/55/19 36/56/19 9/57/19
f 51/55/20 52/58/20 35/59/20 36/56/20
f 52/58/21 53/60/21 34/61/21 35/59/21
f 53/60/22 54/62/22 33/63/22 34/61/22
f 54/62/23 55/18/23 32/21/23 33/63/23
f 9/64/24 36/65/24 37/17/24
f 37/17/25 36/65/25 35/66/25 38/67/25
f 38/67/26 35/66/26 34/68/26
f 34/69/27 33/70/27 39/71/27
f 39/71/28 33/70/28 32/72/28
f 49/73/3 56/74/3 32/72/3 8/75/3
f 56/74/3 57/76/3 39/71/3 32/72/3
f 57/76/3 58/77/3 34/68/3 39/71/3
f 58/77/3 59/78/3 38/67/3 34/68/3
f 59/78/3 60/14/3 37/17/3 38/67/3
f 62/79/3 7/5/3 27/80/3 63/81/3
f 63/81/3 27/80/3 28/82/3 64/83/3
f 64/83/3 28/82/3 29/84/3 65/85/3
f 65/85/3 29/84/3 30/86/3 66/87/3
f 66/87/3 30/86/3 31/7/3 67/6/3
f 61/88/29 2/89/29 17/90/29 68/91/29
f 68/91/30 17/90/30 18/92/30 69/93/30
f 69/93/31 18/92/31 19/94/31 70/95/31
f 70/95/32 19/94/32 20/96/32 71/97/32
f 71/97/33 20/96/33 21/2/33 72/1/33
f 28/82/3 27/80/3 60/14/3 59/78/3
f 29/84/3 28/82/3 59/78/3 58/77/3
f 30/86/3 29/84/3 58/77/3 57/76/3
f 31/7/3 30/86/3 57/76/3 56/74/3
f 5/8/3 31/7/3 56/74/3 49/73/3
f 18/92/34 17/90/34 55/18/34 54/62/34
f 19/94/35 18/92/35 54/62/35 53/60/35
f 20/96/36 19/94/36 53/60/36 52/58/36
f 21/2/37 20/96/37 52/58/37 51/55/37
f 4/3/20 21/2/20 51/55/20 50/22/20
f 7/5/38 4/3/38 50/22/38 48/15/38
f 2/10/39 5/8/39 49/98/39
f 17/90/40 2/89/40 49/19/40 55/18/40
f 27/80/3 7/5/3 48/15/3 60/14/3
f 13/99/41 71/97/41 72/1/41 12/100/41
f 14/101/42 70/95/42 71/97/42 13/99/42
f 15/102/43 69/93/43 70/95/43 14/101/43
f 16/103/44 68/91/44 69/93/44 15/102/44
f 1/104/45 61/88/45 68/91/45 16/103/45
f 23/105/3 66/87/3 67/6/3 22/106/3
f 24/107/3 65/85/3 66/87/3 23/105/3
f 25/108/3 64/83/3 65/85/3 24/107/3
f 26/109/3 63/81/3 64/83/3 25/108/3
f 6/110/3 62/79/3 63/81/3 26/109/3
f 22/106/3 67/6/3 61/9/3 1/111/3
f 3/112/46 62/79/46 6/110/46
f 12/100/47 72/1/47 62/4/47 3/112/47
f 13/99/48 12/100/48 86/26/48 85/49/48
f 14/101/49 13/99/49 85/49/49 84/47/49
f 15/102/50 14/101/50 84/47/50 83/45/50
f 16/103/51 15/102/51 83/45/51 82/42/51
f 1/104/52 16/103/52 82/42/52 75/41/52
f 23/105/3 22/106/3 81/28/3 80/39/3
f 24/107/3 23/105/3 80/39/3 79/37/3
f 25/108/3 24/107/3 79/37/3 78/35/3
f 26/109/3 25/108/3 78/35/3 77/32/3
f 6/110/3 26/109/3 77/32/3 73/12/3
f 1/113/53 75/31/53 76/29/53
f 22/106/3 1/111/3 76/29/3 81/28/3
f 12/100/20 3/112/20 74/11/20 86/26/20
f 3/112/54 6/110/54 73/12/54 74/11/54
