# Blender v2.93.1 OBJ File: 'Arrow.blend'
# www.blender.org
mtllib Arrow.mtl
o Cube
v 1.000000 1.000000 -1.000000
v 1.000000 -1.000000 -1.000000
v 1.000000 1.000000 1.000000
v 1.000000 -1.000000 1.000000
v -1.000000 1.000000 -1.000000
v -1.000000 -1.000000 -1.000000
v -1.000000 1.000000 1.000000
v -1.000000 -1.000000 1.000000
v 1.000000 11.000000 1.000000
v -1.000000 11.000000 1.000000
v 1.000000 11.000000 -1.000000
v -1.000000 11.000000 -1.000000
v -2.500000 -1.000000 -0.333333
v -2.500000 -1.000000 0.333333
v 1.000000 1.000000 -0.333333
v 1.000000 1.000000 0.333333
v -1.000000 1.000000 0.333333
v -1.000000 1.000000 -0.333333
v 2.500000 -1.000000 0.333333
v 2.500000 -1.000000 -0.333333
v 1.000000 11.000000 -0.333333
v 1.000000 11.000000 0.333333
v -1.000000 11.000000 0.333333
v -1.000000 11.000000 -0.333333
v -2.500000 -5.000000 0.333333
v -1.000000 -5.500000 1.000000
v 1.000000 -5.500000 -1.000000
v -1.000000 -5.500000 -1.000000
v 1.000000 -5.500000 1.000000
v 2.500000 -5.000000 -0.333333
v -2.500000 -5.000000 -0.333333
v 2.500000 -5.000000 0.333333
v 0.000000 -1.000000 -1.000000
v 0.000000 1.000000 1.000000
v 0.000000 -1.000000 1.000000
v 0.000000 1.000000 -1.000000
v 0.000000 11.000000 1.000000
v 0.000000 11.000000 -1.000000
v 0.000000 -1.684993 -1.000000
v 0.000000 -1.684993 1.000000
v 0.000000 -1.684993 -0.333333
v 0.000000 -1.684993 0.333333
v 0.000000 17.000000 1.000000
v -1.000000 17.000000 1.000000
v 1.000000 17.000000 0.333333
v 1.000000 17.000000 1.000000
v -1.000000 17.000000 -0.333333
v -1.000000 17.000000 -1.000000
v 0.000000 17.000000 -1.000000
v 1.000000 17.000000 -1.000000
v 1.000000 17.000000 -0.333333
v -1.000000 17.000000 0.333333
v 0.000000 20.507885 0.000000
v 3.000000 15.000000 0.333333
v 3.000000 15.000000 -0.333333
v -2.939553 14.943004 -0.333333
v -2.939553 14.943004 0.333333
v 0.000000 16.100000 1.000000
v 1.000000 16.100000 -0.333333
v 1.000000 16.100000 -1.000000
v -1.000000 16.100000 0.333333
v -1.000000 16.100000 -0.333333
v 0.000000 16.100000 -1.000000
v -1.000000 16.100000 -1.000000
v -1.000000 16.100000 1.000000
v 1.000000 16.100000 0.333333
v 1.000000 16.100000 1.000000
vt 0.625000 0.583333
vt 0.625000 0.500000
vt 0.625000 0.500000
vt 0.625000 0.583333
vt 0.375000 0.875000
vt 0.625000 0.875000
vt 0.625000 1.000000
vt 0.375000 1.000000
vt 0.375000 0.166667
vt 0.625000 0.166667
vt 0.625000 0.250000
vt 0.375000 0.250000
vt 0.375000 0.666667
vt 0.375000 0.750000
vt 0.375000 0.750000
vt 0.375000 0.666667
vt 0.625000 0.666667
vt 0.625000 0.750000
vt 0.375000 0.375000
vt 0.625000 0.375000
vt 0.375000 0.500000
vt 0.625000 1.000000
vt 0.625000 0.875000
vt 0.625000 0.875000
vt 0.625000 1.000000
vt 0.625000 0.250000
vt 0.625000 0.375000
vt 0.625000 0.750000
vt 0.625000 0.875000
vt 0.625000 0.083333
vt 0.625000 0.000000
vt 0.625000 0.000000
vt 0.625000 0.083333
vt 0.625000 0.166667
vt 0.625000 0.500000
vt 0.625000 0.375000
vt 0.625000 0.375000
vt 0.625000 0.500000
vt 0.625000 0.583333
vt 0.625000 0.583333
vt 0.375000 0.583333
vt 0.375000 1.000000
vt 0.375000 0.875000
vt 0.375000 0.083333
vt 0.375000 0.166667
vt 0.375000 0.083333
vt 0.375000 0.000000
vt 0.625000 0.666667
vt 0.250000 0.666667
vt 0.250000 0.750000
vt 0.250000 0.500000
vt 0.375000 0.500000
vt 0.375000 0.583333
vt 0.250000 0.583333
vt 0.375000 0.000000
vt 0.375000 0.250000
vt 0.375000 0.375000
vt 0.125000 0.583333
vt 0.125000 0.666667
vt 0.125000 0.500000
vt 0.125000 0.750000
vt 0.625000 0.166667
vt 0.625000 0.083333
vt 0.625000 0.083333
vt 0.625000 0.166667
vt 0.625000 0.250000
vt 0.625000 0.250000
vt 0.625000 1.000000
vt 0.625000 0.000000
vt 0.625000 0.083333
vt 0.625000 0.250000
vt 0.625000 0.666667
vt 0.625000 0.666667
vt 0.625000 0.750000
vt 0.625000 0.750000
vt 0.625000 0.375000
vt 0.625000 0.583333
vt 0.625000 0.666667
vt 0.625000 0.000000
vt 0.625000 0.750000
vt 0.625000 0.500000
vt 0.625000 0.875000
vt 0.625000 1.000000
vt 0.625000 0.166667
vt 0.625000 0.583333
vt 0.625000 0.666667
vt 0.625000 0.166667
vt 0.625000 0.083333
vt 0.000000 0.000000
vt 0.000000 0.000000
vt 0.000000 0.000000
vt 0.000000 0.000000
vt 0.000000 0.000000
vt 0.000000 0.000000
vt 0.000000 0.000000
vt 0.000000 0.000000
vt 0.000000 0.000000
vt 0.000000 0.000000
vt 0.000000 0.000000
vt 0.000000 0.000000
vt 0.000000 0.000000
vn 1.0000 0.0000 0.0000
vn 0.0000 0.0000 1.0000
vn -0.6447 0.2417 -0.7252
vn 0.4061 0.0000 0.9138
vn 0.6447 0.2417 0.7252
vn 0.0000 0.0000 -1.0000
vn -1.0000 0.0000 0.0000
vn 0.6447 0.2417 -0.7252
vn 0.8000 0.6000 0.0000
vn -0.6447 0.2417 0.7252
vn -0.8000 0.6000 0.0000
vn -0.5818 -0.2856 -0.7616
vn -0.5818 -0.2856 0.7616
vn -0.7984 -0.6021 0.0000
vn -0.4061 0.0000 0.9138
vn 0.4061 0.0000 -0.9138
vn -0.4061 0.0000 -0.9138
vn 0.7984 -0.6021 0.0000
vn 0.5818 -0.2856 0.7616
vn 0.5818 -0.2856 -0.7616
vn -0.9617 0.2742 0.0000
vn 0.9617 0.2742 0.0000
vn 0.0000 0.2742 -0.9617
vn 0.0000 0.2742 0.9617
vn -0.7071 -0.7071 0.0000
vn -0.7276 0.6860 0.0000
vn 0.8782 0.4783 0.0000
vn 0.8842 -0.4671 0.0000
vn 0.6302 -0.3737 0.6806
vn -0.6302 0.3737 0.6806
vn 0.6070 0.3731 0.7017
vn 0.6070 0.3731 -0.7017
vn 0.7276 -0.6860 0.0000
vn 0.5123 -0.8588 0.0000
vn -0.4819 -0.8762 0.0000
vn -0.3346 0.5609 -0.7572
vn 0.3346 -0.5609 -0.7572
vn -0.3111 -0.5657 -0.7637
vn 0.3111 0.5657 -0.7637
usemtl Material
s off
f 15/1/1 1/2/1 11/3/1 21/4/1
f 35/5/2 34/6/2 7/7/2 8/8/2
f 13/9/3 18/10/3 5/11/3 6/12/3
f 19/13/4 4/14/4 29/15/4 32/16/4
f 19/13/5 16/17/5 3/18/5 4/14/5
f 33/19/6 36/20/6 1/2/6 2/21/6
f 65/22/2 58/23/2 43/24/2 44/25/2
f 36/20/6 5/11/6 12/26/6 38/27/6
f 34/6/2 3/18/2 9/28/2 37/29/2
f 17/30/7 7/31/7 10/32/7 23/33/7
f 5/11/7 18/10/7 24/34/7 12/26/7
f 18/10/7 17/30/7 23/33/7 24/34/7
f 60/35/6 63/36/6 49/37/6 50/38/6
f 59/39/1 60/35/1 50/38/1 51/40/1
f 2/21/8 1/2/8 15/1/8 20/41/8
f 20/41/9 15/1/9 16/17/9 19/13/9
f 35/5/2 8/8/2 26/42/2 40/43/2
f 14/44/7 13/9/7 31/45/7 25/46/7
f 8/47/10 7/31/10 17/30/10 14/44/10
f 14/44/11 17/30/11 18/10/11 13/9/11
f 3/18/1 16/17/1 22/48/1 9/28/1
f 16/17/1 15/1/1 21/4/1 22/48/1
f 42/49/12 32/16/12 29/15/12 40/50/12
f 39/51/13 27/52/13 30/53/13 41/54/13
f 41/54/14 30/53/14 32/16/14 42/49/14
f 8/47/15 14/44/15 25/46/15 26/55/15
f 2/21/16 20/41/16 30/53/16 27/52/16
f 13/9/17 6/12/17 28/56/17 31/45/17
f 20/41/1 19/13/1 32/16/1 30/53/1
f 33/19/6 2/21/6 27/52/6 39/57/6
f 6/12/6 33/19/6 39/57/6 28/56/6
f 31/58/18 41/54/18 42/49/18 25/59/18
f 28/60/19 39/51/19 41/54/19 31/58/19
f 25/59/20 42/49/20 40/50/20 26/61/20
f 4/14/2 35/5/2 40/43/2 29/15/2
f 62/62/7 61/63/7 52/64/7 47/65/7
f 64/66/7 62/62/7 47/65/7 48/67/7
f 7/7/2 34/6/2 37/29/2 10/68/2
f 1/2/6 36/20/6 38/27/6 11/3/6
f 63/36/6 64/66/6 48/67/6 49/37/6
f 6/12/6 5/11/6 36/20/6 33/19/6
f 4/14/2 3/18/2 34/6/2 35/5/2
f 52/64/21 44/69/21 53/70/21
f 48/67/21 47/65/21 53/71/21
f 45/72/22 51/40/22 53/73/22
f 46/74/22 45/72/22 53/75/22
f 49/37/23 48/67/23 53/76/23
f 51/40/22 50/38/22 53/77/22
f 66/78/1 59/39/1 51/40/1 45/72/1
f 61/63/7 65/79/7 44/69/7 52/64/7
f 58/23/2 67/80/2 46/74/2 43/24/2
f 67/80/1 66/78/1 45/72/1 46/74/1
f 50/38/23 49/37/23 53/81/23
f 43/24/24 46/74/24 53/82/24
f 44/25/24 43/24/24 53/83/24
f 47/65/21 52/64/21 53/84/21
f 45/72/25 51/40/25 55/85/25 54/86/25
f 52/64/26 47/65/26 56/87/26 57/88/26
f 53/89/27 54/86/27 55/85/27
f 56/87/28 53/89/28 57/88/28
f 48/67/29 53/71/29 56/87/29
f 44/69/30 53/70/30 57/88/30
f 53/75/31 46/74/31 54/86/31
f 50/38/32 53/77/32 55/85/32
f 50/90/25 55/91/25 51/92/25
f 45/93/25 54/94/25 46/95/25
f 44/96/33 57/97/33 52/98/33
f 56/99/26 47/100/26 48/101/26
f 9/28/1 22/48/1 66/78/1 67/80/1
f 37/29/2 9/28/2 67/80/2 58/23/2
f 23/33/7 10/32/7 65/79/7 61/63/7
f 22/48/1 21/4/1 59/39/1 66/78/1
f 38/27/6 12/26/6 64/66/6 63/36/6
f 12/26/7 24/34/7 62/62/7 64/66/7
f 24/34/7 23/33/7 61/63/7 62/62/7
f 21/4/1 11/3/1 60/35/1 59/39/1
f 11/3/6 38/27/6 63/36/6 60/35/6
f 10/68/2 37/29/2 58/23/2 65/22/2
f 62/62/34 61/63/34 57/88/34 56/87/34
f 66/78/35 59/39/35 55/85/35 54/86/35
f 61/63/36 57/88/36 44/69/36
f 62/62/37 56/87/37 48/67/37
f 50/38/38 55/85/38 59/39/38
f 46/74/39 54/86/39 66/78/39
