# Blender v2.93.1 OBJ File: 'Rock.blend'
# www.blender.org
mtllib Rock.mtl
o Cube
v 0.802161 1.000000 -0.783428
v 0.632797 -1.000000 -0.842235
v 0.880734 1.000000 0.880842
v 0.620326 -1.000000 0.765239
v -0.750857 1.000000 -0.750857
v -0.665966 -1.000000 -0.831552
v -0.812209 1.000000 0.846576
v -0.676708 -1.000000 0.814020
v -1.000000 -1.000000 -0.333333
v -1.000000 -1.000000 0.333333
v 1.000000 1.000000 -0.333333
v 1.000000 1.000000 0.333333
v -1.000000 1.000000 0.333333
v -1.000000 1.000000 -0.333333
v 1.000000 -1.000000 0.333333
v 1.000000 -1.000000 -0.333333
v 0.400000 -1.000000 -1.000000
v 0.400000 1.000000 1.000000
v 0.400000 -1.000000 1.000000
v 0.400000 1.000000 -1.000000
v 0.400000 -1.324833 -0.333333
v 0.400000 -1.324833 0.333333
v 0.400000 1.361713 -0.333333
v 0.400000 1.361713 0.333333
v -0.160000 -1.000000 -1.000000
v -0.160000 1.000000 1.000000
v -0.160000 -1.324833 -0.333333
v -0.160000 -1.324833 0.333333
v -0.160000 -1.000000 1.000000
v -0.160000 1.000000 -1.000000
v -0.160000 1.361713 -0.333333
v -0.160000 1.361713 0.333333
v 1.000000 0.499949 -1.000000
v 1.000000 -0.000051 -1.000000
v 1.000000 -0.500051 -1.000000
v -1.000000 -0.500051 1.000000
v -1.000000 -0.000051 1.000000
v -1.000000 0.499949 1.000000
v 1.000000 0.499949 1.000000
v 1.000000 -0.000051 1.000000
v 1.000000 -0.500051 1.000000
v -1.000000 0.499949 -1.000000
v -1.000000 -0.000051 -1.000000
v -1.000000 -0.500051 -1.000000
v 1.240788 0.499949 -0.333333
v 1.240788 -0.000051 -0.333333
v 1.240788 -0.500051 -0.333333
v 1.240788 0.499949 0.333333
v 1.240788 -0.000051 0.333333
v 1.240788 -0.500051 0.333333
v -1.345452 0.499949 0.333333
v -1.345452 -0.000051 0.333333
v -1.345452 -0.500051 0.333333
v -1.345452 0.499949 -0.333333
v -1.345452 -0.000051 -0.333333
v -1.345452 -0.500051 -0.333333
v 0.400000 0.499949 -1.400947
v 0.400000 -0.000051 -1.400947
v 0.400000 -0.500051 -1.400947
v 0.400000 0.499949 1.277540
v 0.400000 -0.000051 1.277540
v 0.400000 -0.500051 1.277540
v -0.160000 0.499949 -1.400947
v -0.160000 -0.000051 -1.400947
v -0.160000 -0.500051 -1.400947
v -0.160000 0.499949 1.277540
v -0.160000 -0.000051 1.277540
v -0.160000 -0.500051 1.277540
vt 0.770000 0.666667
vt 0.875000 0.666667
vt 0.875000 0.750000
vt 0.770000 0.750000
vt 0.562494 0.895000
vt 0.625000 0.895000
vt 0.625000 1.000000
vt 0.562494 1.000000
vt 0.562494 0.166667
vt 0.625000 0.166667
vt 0.625000 0.250000
vt 0.562494 0.250000
vt 0.300000 0.666667
vt 0.375000 0.666667
vt 0.375000 0.750000
vt 0.300000 0.750000
vt 0.562494 0.666667
vt 0.625000 0.666667
vt 0.625000 0.750000
vt 0.562494 0.750000
vt 0.562494 0.425000
vt 0.625000 0.425000
vt 0.625000 0.500000
vt 0.562494 0.500000
vt 0.625000 0.583333
vt 0.562494 0.583333
vt 0.300000 0.500000
vt 0.375000 0.500000
vt 0.375000 0.583333
vt 0.300000 0.583333
vt 0.562494 -0.000000
vt 0.625000 0.000000
vt 0.625000 0.083333
vt 0.562494 0.083333
vt 0.770000 0.500000
vt 0.875000 0.500000
vt 0.875000 0.583333
vt 0.770000 0.583333
vt 0.700000 0.583333
vt 0.700000 0.666667
vt 0.700000 0.500000
vt 0.230000 0.583333
vt 0.230000 0.666667
vt 0.230000 0.500000
vt 0.562494 0.355000
vt 0.625000 0.355000
vt 0.230000 0.750000
vt 0.625000 0.825000
vt 0.562494 0.825000
vt 0.700000 0.750000
vt 0.125000 0.666667
vt 0.125000 0.750000
vt 0.125000 0.500000
vt 0.125000 0.583333
vt 0.375000 0.825000
vt 0.437494 0.825000
vt 0.437494 0.895000
vt 0.375000 0.895000
vt 0.499994 0.825000
vt 0.499994 0.895000
vt 0.375000 0.250000
vt 0.437494 0.250000
vt 0.437494 0.355000
vt 0.375000 0.355000
vt 0.499994 0.250000
vt 0.499994 0.355000
vt 0.437494 0.750000
vt 0.499994 0.750000
vt 0.437494 0.425000
vt 0.375000 0.425000
vt 0.499994 0.425000
vt 0.375000 0.083333
vt 0.437494 0.083333
vt 0.437494 0.166667
vt 0.375000 0.166667
vt 0.499994 0.083333
vt 0.499994 0.166667
vt 0.375000 0.000000
vt 0.437494 0.000000
vt 0.499994 0.000000
vt 0.437494 0.583333
vt 0.437494 0.666667
vt 0.499994 0.583333
vt 0.499994 0.666667
vt 0.437494 0.500000
vt 0.499994 0.500000
vt 0.437494 1.000000
vt 0.375000 1.000000
vt 0.499994 1.000000
vn -0.2541 0.9126 0.3202
vn -0.2515 0.4225 0.8708
vn -0.7381 0.5397 -0.4048
vn 0.4333 -0.8125 0.3900
vn 0.8965 0.3544 0.2658
vn 0.4440 0.5327 -0.7205
vn 0.8367 0.4381 -0.3286
vn 0.9010 0.4338 0.0000
vn 0.3974 -0.8451 -0.3576
vn 0.4761 -0.8794 0.0000
vn -0.7988 0.4813 0.3610
vn -0.8228 0.5684 0.0000
vn -0.2872 0.8869 -0.3619
vn -0.3955 0.9185 0.0000
vn 0.5163 0.8564 0.0000
vn 0.3837 0.8564 -0.3454
vn 0.0000 -1.0000 0.0000
vn 0.0000 -0.8990 -0.4380
vn 0.0000 0.6256 -0.7802
vn 0.0000 -0.8990 0.4380
vn 0.3184 0.3821 0.8675
vn 0.3324 0.8945 0.2991
vn -0.2624 -0.9066 0.3306
vn -0.3397 0.5706 -0.7477
vn -0.2602 -0.9082 -0.3279
vn -0.3607 -0.9327 0.0000
vn 0.0000 1.0000 0.0000
vn 0.0000 0.8790 -0.4769
vn 0.0000 0.4853 0.8744
vn 0.0000 0.8790 0.4769
vn 0.0000 -0.4854 0.8743
vn 0.0000 0.0000 1.0000
vn -0.3260 -0.5477 -0.7706
vn -0.4308 0.0000 -0.9025
vn 0.4470 -0.5365 0.7158
vn 0.4198 0.0000 0.9076
vn 0.0000 -0.6256 -0.7801
vn 0.0000 0.0000 -1.0000
vn -0.8227 -0.5685 0.0000
vn -1.0000 0.0000 0.0000
vn -0.7173 -0.5575 0.4181
vn -0.8879 0.0000 0.4601
vn 0.9010 -0.4339 0.0000
vn 1.0000 0.0000 0.0000
vn 0.7574 -0.5224 -0.3917
vn 0.9405 0.0000 -0.3397
vn 0.4631 -0.5558 -0.6903
vn 0.5556 0.0000 -0.8314
vn 0.7281 -0.5484 0.4112
vn 0.9405 0.0000 0.3397
vn -0.7170 -0.5577 -0.4182
vn -0.8879 0.0000 -0.4601
vn -0.2841 -0.4773 0.8315
vn -0.3137 0.0000 0.9495
usemtl Material
s off
f 32/1/1 13/2/1 7/3/1 26/4/1
f 66/5/2 26/6/2 7/7/2 38/8/2
f 54/9/3 14/10/3 5/11/3 42/12/3
f 22/13/4 15/14/4 4/15/4 19/16/4
f 48/17/5 12/18/5 3/19/5 39/20/5
f 57/21/6 20/22/6 1/23/6 33/24/6
f 33/24/7 1/23/7 11/25/7 45/26/7
f 45/26/8 11/25/8 12/18/8 48/17/8
f 17/27/9 2/28/9 16/29/9 21/30/9
f 21/30/10 16/29/10 15/14/10 22/13/10
f 38/31/11 7/32/11 13/33/11 51/34/11
f 51/34/12 13/33/12 14/10/12 54/9/12
f 30/35/13 5/36/13 14/37/13 31/38/13
f 31/38/14 14/37/14 13/2/14 32/1/14
f 11/25/15 23/39/15 24/40/15 12/18/15
f 1/23/16 20/41/16 23/39/16 11/25/16
f 27/42/17 21/30/17 22/13/17 28/43/17
f 25/44/18 17/27/18 21/30/18 27/42/18
f 63/45/19 30/46/19 20/22/19 57/21/19
f 28/43/20 22/13/20 19/16/20 29/47/20
f 39/20/21 3/19/21 18/48/21 60/49/21
f 12/18/22 24/40/22 18/50/22 3/19/22
f 10/51/23 28/43/23 29/47/23 8/52/23
f 42/12/24 5/11/24 30/46/24 63/45/24
f 6/53/25 25/44/25 27/42/25 9/54/25
f 9/54/26 27/42/26 28/43/26 10/51/26
f 23/39/27 31/38/27 32/1/27 24/40/27
f 20/41/28 30/35/28 31/38/28 23/39/28
f 60/49/29 18/48/29 26/6/29 66/5/29
f 24/40/30 32/1/30 26/4/30 18/50/30
f 19/55/31 62/56/31 68/57/31 29/58/31
f 62/56/32 61/59/32 67/60/32 68/57/32
f 61/59/32 60/49/32 66/5/32 67/60/32
f 6/61/33 44/62/33 65/63/33 25/64/33
f 44/62/34 43/65/34 64/66/34 65/63/34
f 43/65/34 42/12/34 63/45/34 64/66/34
f 4/15/35 41/67/35 62/56/35 19/55/35
f 41/67/36 40/68/36 61/59/36 62/56/36
f 40/68/36 39/20/36 60/49/36 61/59/36
f 25/64/37 65/63/37 59/69/37 17/70/37
f 65/63/38 64/66/38 58/71/38 59/69/38
f 64/66/38 63/45/38 57/21/38 58/71/38
f 10/72/39 53/73/39 56/74/39 9/75/39
f 53/73/40 52/76/40 55/77/40 56/74/40
f 52/76/40 51/34/40 54/9/40 55/77/40
f 8/78/41 36/79/41 53/73/41 10/72/41
f 36/79/42 37/80/42 52/76/42 53/73/42
f 37/80/42 38/31/42 51/34/42 52/76/42
f 16/29/43 47/81/43 50/82/43 15/14/43
f 47/81/44 46/83/44 49/84/44 50/82/44
f 46/83/44 45/26/44 48/17/44 49/84/44
f 2/28/45 35/85/45 47/81/45 16/29/45
f 35/85/46 34/86/46 46/83/46 47/81/46
f 34/86/46 33/24/46 45/26/46 46/83/46
f 17/70/47 59/69/47 35/85/47 2/28/47
f 59/69/48 58/71/48 34/86/48 35/85/48
f 58/71/48 57/21/48 33/24/48 34/86/48
f 15/14/49 50/82/49 41/67/49 4/15/49
f 50/82/50 49/84/50 40/68/50 41/67/50
f 49/84/50 48/17/50 39/20/50 40/68/50
f 9/75/51 56/74/51 44/62/51 6/61/51
f 56/74/52 55/77/52 43/65/52 44/62/52
f 55/77/52 54/9/52 42/12/52 43/65/52
f 29/58/53 68/57/53 36/87/53 8/88/53
f 68/57/54 67/60/54 37/89/54 36/87/54
f 67/60/54 66/5/54 38/8/54 37/89/54
