# Blender v2.93.1 OBJ File: 'TowerRoof.blend'
# www.blender.org
mtllib TowerRoof.mtl
o Cube
v 0.000000 -0.345550 0.000000
v 1.200000 -1.000000 -1.200000
v 1.200000 -1.000000 1.200000
v -1.200000 -1.000000 -1.200000
v -1.200000 -1.000000 1.200000
vt 0.125000 0.500000
vt 0.375000 0.500000
vt 0.375000 0.750000
vt 0.125000 0.750000
vt 0.625000 0.750000
vt 0.375000 0.250000
vt 0.625000 0.500000
vt 0.375000 0.000000
vt 0.625000 0.250000
vt 0.625000 1.000000
vt 0.375000 1.000000
vn 0.0000 -1.0000 0.0000
vn 0.4788 0.8779 0.0000
vn 0.0000 0.8779 -0.4788
vn -0.4788 0.8779 0.0000
vn 0.0000 0.8779 0.4788
usemtl Material
s off
f 4/1/1 2/2/1 3/3/1 5/4/1
f 2/2/2 1/5/2 3/3/2
f 4/6/3 1/7/3 2/2/3
f 5/8/4 1/9/4 4/6/4
f 3/3/5 1/10/5 5/11/5
